<svg width="32" height="32" viewBox="0 0 32 32" fill="none" xmlns="http://www.w3.org/2000/svg">
<path d="M32 16C32 24.8366 24.8366 32 16 32C15.7544 32 15.5101 31.9945 15.2672 31.9835V28.1408C15.2672 25.426 13.5738 24.1245 12.6508 23.6542C11.8564 23.1736 11.3766 22.7467 11.0635 22.1637C10.7372 21.556 10.5336 20.6687 10.5336 19.1585V6.51797H9.54161L8.70906 19.1585C8.70906 20.7993 8.92431 22.0309 9.45404 23.0168C9.99324 24.0204 10.7988 24.6588 11.7357 25.2215L11.7668 25.2402L11.7994 25.2563C12.3418 25.526 13.4455 26.3124 13.4455 28.1409V31.7971C5.82309 30.5741 0 23.9671 0 16C0 7.16342 7.16342 0 16 0C24.8366 0 32 7.16342 32 16Z" fill="#E44024"/>
<path fill-rule="evenodd" clip-rule="evenodd" d="M15.2691 28.1424V31.9851C14.6521 31.9573 14.0442 31.8945 13.4473 31.7987V28.1425C13.4473 26.314 12.3437 25.5276 11.8013 25.2579L11.7687 25.2418L11.7376 25.2231C10.8007 24.6604 9.99512 24.022 9.45591 23.0184C8.92619 22.0325 8.71094 20.8009 8.71094 19.1601L9.54349 6.51953H10.5355V19.1601C10.5355 20.6703 10.739 21.5575 11.0654 22.1653C11.3784 22.7483 11.8582 23.1752 12.6527 23.6558C13.5757 24.1261 15.2691 25.4276 15.2691 28.1424Z" fill="#FFDFDD"/>
<path fill-rule="evenodd" clip-rule="evenodd" d="M13.957 15.0832L14.3051 6.51953H15.3495L15.7565 15.0832C13.957 15.0832 15.7565 15.0832 13.957 15.0832Z" fill="#FFDFDD"/>
<path fill-rule="evenodd" clip-rule="evenodd" d="M19.0391 15.0832L19.3871 6.51953H20.4314L20.8386 15.0832C19.0391 15.0832 20.8386 15.0832 19.0391 15.0832Z" fill="#FFDFDD"/>
<path fill-rule="evenodd" clip-rule="evenodd" d="M22.0947 20.1798C22.5257 19.2845 22.6815 18.233 22.6815 17.6191H23.2747C23.3105 18.3886 23.324 19.5802 22.9122 20.7058C22.5012 21.8295 21.7351 22.9885 20.3675 23.4869L19.9102 22.2442C20.7644 21.9329 21.6637 21.075 22.0947 20.1798Z" fill="#FFDFDD"/>
</svg>
