<svg width="24" height="24" viewBox="0 0 24 24" fill="none" xmlns="http://www.w3.org/2000/svg">
<path d="M11.9991 7.19323C9.33898 7.19323 7.1921 9.3401 7.1921 12.0003C7.1921 14.6604 9.33898 16.8073 11.9991 16.8073C14.6593 16.8073 16.8062 14.6604 16.8062 12.0003C16.8062 9.3401 14.6593 7.19323 11.9991 7.19323ZM11.9991 15.1245C10.2788 15.1245 8.87492 13.7206 8.87492 12.0003C8.87492 10.2799 10.2788 8.87604 11.9991 8.87604C13.7194 8.87604 15.1234 10.2799 15.1234 12.0003C15.1234 13.7206 13.7194 15.1245 11.9991 15.1245ZM17.003 5.87604C16.3819 5.87604 15.8804 6.3776 15.8804 6.9987C15.8804 7.61979 16.3819 8.12135 17.003 8.12135C17.6241 8.12135 18.1257 7.62213 18.1257 6.9987C18.1259 6.85121 18.097 6.70514 18.0406 6.56885C17.9843 6.43256 17.9016 6.30873 17.7973 6.20444C17.693 6.10016 17.5692 6.01747 17.4329 5.96112C17.2966 5.90477 17.1505 5.87585 17.003 5.87604ZM21.3694 12.0003C21.3694 10.7065 21.3812 9.42448 21.3085 8.13307C21.2359 6.63307 20.8937 5.30182 19.7968 4.20495C18.6976 3.10573 17.3687 2.76588 15.8687 2.69323C14.5749 2.62057 13.2929 2.63229 12.0015 2.63229C10.7077 2.63229 9.4257 2.62057 8.13429 2.69323C6.63429 2.76588 5.30304 3.10807 4.20617 4.20495C3.10695 5.30416 2.7671 6.63307 2.69445 8.13307C2.62179 9.42682 2.63351 10.7089 2.63351 12.0003C2.63351 13.2917 2.62179 14.576 2.69445 15.8674C2.7671 17.3674 3.10929 18.6987 4.20617 19.7956C5.30538 20.8948 6.63429 21.2346 8.13429 21.3073C9.42804 21.3799 10.7101 21.3682 12.0015 21.3682C13.2952 21.3682 14.5773 21.3799 15.8687 21.3073C17.3687 21.2346 18.6999 20.8924 19.7968 19.7956C20.896 18.6964 21.2359 17.3674 21.3085 15.8674C21.3835 14.576 21.3694 13.294 21.3694 12.0003ZM19.3069 17.5268C19.1359 17.9534 18.9296 18.2721 18.5991 18.6003C18.2687 18.9307 17.9523 19.137 17.5257 19.3081C16.2929 19.7979 13.3655 19.6878 11.9991 19.6878C10.6327 19.6878 7.70304 19.7979 6.47023 19.3104C6.04367 19.1393 5.72492 18.9331 5.39679 18.6026C5.06632 18.2721 4.86007 17.9557 4.68898 17.5292C4.20148 16.294 4.31163 13.3667 4.31163 12.0003C4.31163 10.6339 4.20148 7.70416 4.68898 6.47135C4.86007 6.04479 5.06632 5.72604 5.39679 5.39791C5.72726 5.06979 6.04367 4.8612 6.47023 4.6901C7.70304 4.2026 10.6327 4.31276 11.9991 4.31276C13.3655 4.31276 16.2952 4.2026 17.528 4.6901C17.9546 4.8612 18.2734 5.06745 18.6015 5.39791C18.9319 5.72838 19.1382 6.04479 19.3093 6.47135C19.7968 7.70416 19.6866 10.6339 19.6866 12.0003C19.6866 13.3667 19.7968 16.294 19.3069 17.5268Z" fill="#F7F9FC"/>
</svg>
