<svg width="167" height="32" viewBox="0 0 167 32" fill="none" xmlns="http://www.w3.org/2000/svg">
<ellipse cx="16.0196" cy="16" rx="15.9806" ry="16" fill="#E44024"/>
<mask id="mask0" mask-type="alpha" maskUnits="userSpaceOnUse" x="0" y="0" width="32" height="32">
<ellipse cx="15.9806" cy="16" rx="15.9806" ry="16" fill="#E44024"/>
</mask>
<g mask="url(#mask0)">
<path fill-rule="evenodd" clip-rule="evenodd" d="M8.69727 19.1603L9.52904 6.51978H10.5173V19.1603C10.5173 20.6705 10.7208 21.5578 11.047 22.1655C11.3599 22.7486 11.8396 23.1754 12.6337 23.6561C13.5564 24.1263 15.2493 25.4278 15.2493 28.1426V35.7124H13.4293V28.1426C13.4293 26.3141 12.3266 25.5278 11.7847 25.2581L11.7522 25.242L11.7211 25.2233C10.7851 24.6606 9.98027 24.0222 9.44158 23.0186C8.91236 22.0327 8.69727 20.8011 8.69727 19.1603Z" fill="#FFDFDD"/>
<path fill-rule="evenodd" clip-rule="evenodd" d="M13.9395 15.083L14.2875 6.51978H15.3318L15.7389 15.083C13.9395 15.083 15.7389 15.083 13.9395 15.083Z" fill="#FFDFDD"/>
<path fill-rule="evenodd" clip-rule="evenodd" d="M19.0254 15.083L19.3735 6.51978H20.4177L20.8248 15.083C19.0254 15.083 20.8248 15.083 19.0254 15.083Z" fill="#FFDFDD"/>
<path fill-rule="evenodd" clip-rule="evenodd" d="M22.081 20.1825C22.5121 19.2872 22.6678 18.2356 22.6678 17.6218H23.2611C23.2969 18.3912 23.3103 19.5828 22.8986 20.7085C22.4876 21.8322 21.7215 22.9912 20.3538 23.4895L19.8965 22.2468C20.7507 21.9356 21.65 21.0777 22.081 20.1825Z" fill="#FFDFDD"/>
</g>
<path d="M62.5592 6.35668V22.5771H57.9334V13.272L55.5993 18.0514H51.7587L49.4246 13.3143V22.5771H44.7988V6.35668H49.467L53.6896 14.266L57.891 6.35668H62.5592Z" fill="white"/>
<path d="M76.7675 19.7221L77.5314 22.5771H72.9269L72.2479 19.8067H72.2054C72.0781 20.5962 71.7881 21.2447 71.3355 21.7523C70.8969 22.2598 70.4089 22.5982 69.8713 22.7674C69.3479 22.9507 68.8882 23.0423 68.4921 23.0423C67.7707 23.0423 67.127 22.8872 66.5612 22.5771C65.9953 22.2528 65.5568 21.8369 65.2456 21.3293C64.9344 20.8077 64.7788 20.2085 64.7788 19.5318C64.7788 19.0947 64.8636 18.6506 65.0334 18.1995C65.2031 17.7483 65.5639 17.3254 66.1156 16.9306C66.6673 16.5217 67.5514 16.1763 68.7679 15.8943C68.8811 15.8662 69.1499 15.8027 69.5743 15.704C70.0128 15.6053 70.423 15.5066 70.805 15.4079C71.2011 15.2952 71.5052 15.1753 71.7174 15.0484C71.9296 14.9215 72.0711 14.8088 72.1418 14.7101C72.2267 14.5973 72.2691 14.4774 72.2691 14.3506C72.2691 13.8712 71.9155 13.6315 71.2081 13.6315C70.8828 13.6315 70.4796 13.6879 69.9987 13.8007C69.5177 13.8994 69.0014 14.0968 68.4497 14.3929C67.9121 14.6748 67.4736 14.992 67.1341 15.3445L64.9273 12.3415C65.7902 11.5802 66.7734 10.9881 67.8767 10.5651C68.9943 10.128 70.1048 9.90951 71.2081 9.90951C71.8447 9.90951 72.4884 9.99411 73.1391 10.1633C73.7898 10.3184 74.391 10.5721 74.9427 10.9246C75.4944 11.263 75.9329 11.7141 76.2583 12.2781C76.5978 12.842 76.7675 13.4976 76.7675 14.2448V19.7221ZM72.2267 19.2357V17.0363C72.1559 17.1209 72.0357 17.2126 71.8659 17.3113C71.7103 17.3958 71.3142 17.5368 70.6777 17.7342C70.0552 17.9316 69.6592 18.1008 69.4894 18.2418C69.3338 18.3686 69.256 18.5096 69.256 18.6647C69.256 18.9044 69.3479 19.1159 69.5318 19.2991C69.7157 19.4824 70.0482 19.5741 70.5291 19.5741C70.7979 19.5741 71.095 19.5388 71.4203 19.4683C71.7598 19.3978 72.0286 19.3203 72.2267 19.2357Z" fill="white"/>
<path d="M90.4754 19.7221L91.2393 22.5771H86.6348L85.9557 19.8067H85.9133C85.786 20.5962 85.496 21.2447 85.0433 21.7523C84.6048 22.2598 84.1168 22.5982 83.5792 22.7674C83.0558 22.9507 82.5961 23.0423 82.2 23.0423C81.4785 23.0423 80.8349 22.8872 80.269 22.5771C79.7032 22.2528 79.2647 21.8369 78.9534 21.3293C78.6422 20.8077 78.4866 20.2085 78.4866 19.5318C78.4866 19.0947 78.5715 18.6506 78.7413 18.1995C78.911 17.7483 79.2717 17.3254 79.8234 16.9306C80.3751 16.5217 81.2593 16.1763 82.4758 15.8943C82.589 15.8662 82.8578 15.8027 83.2821 15.704C83.7207 15.6053 84.1309 15.5066 84.5129 15.4079C84.9089 15.2952 85.2131 15.1753 85.4253 15.0484C85.6375 14.9215 85.7789 14.8088 85.8497 14.7101C85.9345 14.5973 85.977 14.4774 85.977 14.3506C85.977 13.8712 85.6233 13.6315 84.916 13.6315C84.5907 13.6315 84.1875 13.6879 83.7065 13.8007C83.2256 13.8994 82.7092 14.0968 82.1575 14.3929C81.62 14.6748 81.1814 14.992 80.8419 15.3445L78.6352 12.3415C79.4981 11.5802 80.4812 10.9881 81.5846 10.5651C82.7022 10.128 83.8126 9.90951 84.916 9.90951C85.5526 9.90951 86.1962 9.99411 86.847 10.1633C87.4977 10.3184 88.0989 10.5721 88.6506 10.9246C89.2023 11.263 89.6408 11.7141 89.9662 12.2781C90.3057 12.842 90.4754 13.4976 90.4754 14.2448V19.7221ZM85.9345 19.2357V17.0363C85.8638 17.1209 85.7436 17.2126 85.5738 17.3113C85.4182 17.3958 85.0221 17.5368 84.3855 17.7342C83.7631 17.9316 83.367 18.1008 83.1973 18.2418C83.0417 18.3686 82.9639 18.5096 82.9639 18.6647C82.9639 18.9044 83.0558 19.1159 83.2397 19.2991C83.4236 19.4824 83.756 19.5741 84.237 19.5741C84.5058 19.5741 84.8028 19.5388 85.1282 19.4683C85.4677 19.3978 85.7365 19.3203 85.9345 19.2357Z" fill="white"/>
<path d="M97.3932 4.66485V22.5771H92.8311V4.66485H97.3932Z" fill="white"/>
<path d="M112.92 16.5076C112.92 17.3254 112.771 18.129 112.474 18.9185C112.177 19.708 111.739 20.4129 111.159 21.0333C110.579 21.6536 109.85 22.1471 108.973 22.5136C108.11 22.8802 107.134 23.0635 106.045 23.0635C104.956 23.0635 103.972 22.8802 103.095 22.5136C102.232 22.1471 101.511 21.6536 100.931 21.0333C100.351 20.4129 99.9124 19.708 99.6154 18.9185C99.3325 18.129 99.191 17.3254 99.191 16.5076C99.191 15.6899 99.3325 14.8863 99.6154 14.0968C99.9124 13.3073 100.351 12.6023 100.931 11.982C101.511 11.3617 102.232 10.8682 103.095 10.5017C103.972 10.1351 104.956 9.95181 106.045 9.95181C107.134 9.95181 108.11 10.1351 108.973 10.5017C109.85 10.8682 110.579 11.3617 111.159 11.982C111.739 12.6023 112.177 13.3073 112.474 14.0968C112.771 14.8863 112.92 15.6899 112.92 16.5076ZM108.464 16.5076C108.464 15.7604 108.244 15.1119 107.806 14.562C107.382 13.9981 106.795 13.7161 106.045 13.7161C105.309 13.7161 104.722 13.9981 104.284 14.562C103.859 15.1119 103.647 15.7604 103.647 16.5076C103.647 17.2549 103.859 17.9034 104.284 18.4532C104.722 19.0031 105.309 19.278 106.045 19.278C106.795 19.278 107.382 19.0031 107.806 18.4532C108.244 17.9034 108.464 17.2549 108.464 16.5076Z" fill="white"/>
<path d="M127.7 16.2539C127.7 17.1139 127.573 17.9527 127.318 18.7705C127.078 19.5882 126.71 20.3213 126.215 20.9698C125.72 21.6043 125.097 22.1118 124.348 22.4925C123.612 22.859 122.784 23.0423 121.865 23.0423C121.412 23.0423 120.96 22.9859 120.507 22.8731C120.054 22.7603 119.658 22.5982 119.319 22.3867V27.864H114.735V13.272L113.971 10.3113H118.576L119.234 12.9337H119.276C119.361 12.3274 119.559 11.7846 119.87 11.3053C120.196 10.8259 120.62 10.4805 121.143 10.269C121.667 10.0435 122.219 9.93066 122.799 9.93066C123.577 9.93066 124.277 10.0998 124.899 10.4382C125.522 10.7766 126.038 11.2418 126.448 11.834C126.858 12.4261 127.17 13.1028 127.382 13.8642C127.594 14.6255 127.7 15.422 127.7 16.2539ZM122.947 16.4653C122.947 15.5348 122.728 14.7806 122.289 14.2025C121.865 13.6245 121.299 13.3355 120.592 13.3355C120.139 13.3355 119.715 13.4271 119.319 13.6104V19.3203C119.729 19.4895 120.153 19.5741 120.592 19.5741C120.945 19.5741 121.299 19.4824 121.653 19.2991C122.021 19.1159 122.325 18.7705 122.565 18.2629C122.82 17.7413 122.947 17.1421 122.947 16.4653Z" fill="white"/>
<path d="M137.865 10.3113V13.2297H134.724V18.6436C134.724 19.2498 135.177 19.5529 136.082 19.5529C136.493 19.5529 136.938 19.5106 137.419 19.426V22.5771C136.655 22.8872 135.708 23.0423 134.576 23.0423C133.614 23.0423 132.808 22.8802 132.157 22.5559C131.506 22.2316 131.004 21.7593 130.65 21.139C130.311 20.5187 130.141 19.7362 130.141 18.7916V13.2297H128.444V10.3113H130.141V7.92162L134.724 5.40503V10.3113H137.865Z" fill="white"/>
<path d="M144.144 10.3113V22.5771H139.56V10.3113H144.144Z" fill="white"/>
<path d="M151.013 10.3113V23.4441C151.013 24.0645 150.914 24.6636 150.716 25.2417C150.532 25.8338 150.221 26.3414 149.782 26.7643C149.344 27.2014 148.785 27.5398 148.106 27.7794C147.441 28.0332 146.663 28.1601 145.772 28.1601C145.121 28.1601 144.371 28.0755 143.522 27.9063V24.4381C144.159 24.5509 144.661 24.6073 145.029 24.6073C145.963 24.6073 146.43 24.2477 146.43 23.5287V10.3113H151.013Z" fill="white"/>
<path d="M165.776 19.6164L166.539 22.5771H161.935L161.277 19.9547H161.235C161.15 20.561 160.945 21.1038 160.619 21.5831C160.308 22.0484 159.891 22.3867 159.367 22.5982C158.844 22.8097 158.292 22.9154 157.712 22.9154C157.132 22.9154 156.545 22.8026 155.951 22.5771C155.371 22.3515 154.848 21.9779 154.381 21.4562C153.928 20.9346 153.553 20.2719 153.256 19.4683C152.959 18.6506 152.811 17.7131 152.811 16.6557C152.811 15.7957 152.931 14.9638 153.171 14.1602C153.426 13.3425 153.801 12.6164 154.296 11.982C154.791 11.3476 155.406 10.8471 156.142 10.4805C156.892 10.1139 157.726 9.93066 158.646 9.93066C159.099 9.93066 159.551 9.98706 160.004 10.0998C160.457 10.2126 160.853 10.3748 161.192 10.5862V4.70715H165.776V19.6164ZM161.192 19.3203V13.6104C160.796 13.4271 160.372 13.3355 159.919 13.3355C159.212 13.3355 158.639 13.6245 158.2 14.2025C157.776 14.7806 157.564 15.5348 157.564 16.4653C157.564 17.1421 157.684 17.7413 157.924 18.2629C158.179 18.7705 158.483 19.1159 158.837 19.2991C159.205 19.4824 159.565 19.5741 159.919 19.5741C160.372 19.5741 160.796 19.4895 161.192 19.3203Z" fill="white"/>
<path d="M144.186 7.51981C144.356 7.11095 144.441 6.74439 144.441 6.42012C144.441 5.91257 144.292 5.44027 143.995 5.00322C143.698 4.56616 143.344 4.26304 142.934 4.09386C142.538 3.92468 142.177 3.84009 141.852 3.84009C141.527 3.84009 141.159 3.92468 140.749 4.09386C140.338 4.26304 139.985 4.56616 139.688 5.00322C139.391 5.44027 139.242 5.91257 139.242 6.42012C139.242 7.13915 139.497 7.75244 140.006 8.25998C140.515 8.76753 141.131 9.0213 141.852 9.0213C142.361 9.0213 142.835 8.87327 143.274 8.5772C143.712 8.28113 144.016 7.92867 144.186 7.51981Z" fill="white"/>
<path d="M151.076 7.51981C151.246 7.11095 151.331 6.74439 151.331 6.42012C151.331 5.91257 151.183 5.44027 150.886 5.00322C150.588 4.56616 150.235 4.26304 149.825 4.09386C149.428 3.92468 149.068 3.84009 148.742 3.84009C148.417 3.84009 148.049 3.92468 147.639 4.09386C147.229 4.26304 146.875 4.56616 146.578 5.00322C146.281 5.44027 146.132 5.91257 146.132 6.42012C146.132 7.13915 146.387 7.75244 146.896 8.25998C147.406 8.76753 148.021 9.0213 148.742 9.0213C149.252 9.0213 149.726 8.87327 150.164 8.5772C150.603 8.28113 150.907 7.92867 151.076 7.51981Z" fill="white"/>
</svg>
