<svg width="167" height="32" viewBox="0 0 167 32" fill="none" xmlns="http://www.w3.org/2000/svg">
<g clip-path="url(#clip0)">
<ellipse cx="16.0196" cy="16" rx="15.9806" ry="16" fill="#E44024"/>
<mask id="mask0" mask-type="alpha" maskUnits="userSpaceOnUse" x="0" y="0" width="32" height="32">
<ellipse cx="15.9806" cy="16" rx="15.9806" ry="16" fill="#E44024"/>
</mask>
<g mask="url(#mask0)">
<path fill-rule="evenodd" clip-rule="evenodd" d="M8.69727 19.1601L9.52904 6.51965H10.5173V19.1601C10.5173 20.6703 10.7208 21.5576 11.047 22.1653C11.3599 22.7484 11.8396 23.1753 12.6337 23.6559C13.5564 24.1262 15.2493 25.4277 15.2493 28.1425V35.7123H13.4293V28.1425C13.4293 26.314 12.3266 25.5276 11.7847 25.258L11.7522 25.2419L11.7211 25.2232C10.7851 24.6605 9.98027 24.0221 9.44158 23.0185C8.91236 22.0325 8.69727 20.801 8.69727 19.1601Z" fill="#FFDFDD"/>
<path fill-rule="evenodd" clip-rule="evenodd" d="M13.9395 15.0828L14.2875 6.51965H15.3318L15.7389 15.0828C13.9395 15.0828 15.7389 15.0828 13.9395 15.0828Z" fill="#FFDFDD"/>
<path fill-rule="evenodd" clip-rule="evenodd" d="M19.0254 15.0828L19.3735 6.51965H20.4177L20.8248 15.0828C19.0254 15.0828 20.8248 15.0828 19.0254 15.0828Z" fill="#FFDFDD"/>
<path fill-rule="evenodd" clip-rule="evenodd" d="M22.081 20.1825C22.5121 19.2872 22.6678 18.2356 22.6678 17.6218H23.2611C23.2969 18.3912 23.3103 19.5828 22.8986 20.7085C22.4876 21.8322 21.7215 22.9912 20.3538 23.4895L19.8965 22.2468C20.7507 21.9356 21.65 21.0777 22.081 20.1825Z" fill="#FFDFDD"/>
</g>
<path d="M62.5592 6.35656V22.5769H57.9334V13.2719L55.5993 18.0513H51.7587L49.4246 13.3142V22.5769H44.7988V6.35656H49.467L53.6896 14.2658L57.891 6.35656H62.5592Z" fill="#150C0B"/>
<path d="M76.7675 19.722L77.5314 22.5769H72.9269L72.2479 19.8066H72.2054C72.0781 20.5961 71.7881 21.2446 71.3355 21.7522C70.8969 22.2597 70.4089 22.5981 69.8713 22.7673C69.3479 22.9506 68.8882 23.0422 68.4921 23.0422C67.7707 23.0422 67.127 22.8871 66.5612 22.5769C65.9953 22.2527 65.5568 21.8368 65.2456 21.3292C64.9344 20.8076 64.7788 20.2084 64.7788 19.5317C64.7788 19.0946 64.8636 18.6505 65.0334 18.1993C65.2031 17.7482 65.5639 17.3252 66.1156 16.9305C66.6673 16.5216 67.5514 16.1762 68.7679 15.8942C68.8811 15.866 69.1499 15.8026 69.5743 15.7039C70.0128 15.6052 70.423 15.5065 70.805 15.4078C71.2011 15.295 71.5052 15.1752 71.7174 15.0483C71.9296 14.9214 72.0711 14.8086 72.1418 14.7099C72.2267 14.5972 72.2691 14.4773 72.2691 14.3504C72.2691 13.8711 71.9155 13.6314 71.2081 13.6314C70.8828 13.6314 70.4796 13.6878 69.9987 13.8006C69.5177 13.8993 69.0014 14.0967 68.4497 14.3927C67.9121 14.6747 67.4736 14.9919 67.1341 15.3444L64.9273 12.3414C65.7902 11.5801 66.7734 10.9879 67.8767 10.565C68.9943 10.1279 70.1048 9.90939 71.2081 9.90939C71.8447 9.90939 72.4884 9.99398 73.1391 10.1632C73.7898 10.3183 74.391 10.572 74.9427 10.9245C75.4944 11.2629 75.9329 11.714 76.2583 12.2779C76.5978 12.8419 76.7675 13.4975 76.7675 14.2447V19.722ZM72.2267 19.2356V17.0362C72.1559 17.1208 72.0357 17.2124 71.8659 17.3111C71.7103 17.3957 71.3142 17.5367 70.6777 17.7341C70.0552 17.9315 69.6592 18.1007 69.4894 18.2416C69.3338 18.3685 69.256 18.5095 69.256 18.6646C69.256 18.9043 69.3479 19.1157 69.5318 19.299C69.7157 19.4823 70.0482 19.5739 70.5291 19.5739C70.7979 19.5739 71.095 19.5387 71.4203 19.4682C71.7598 19.3977 72.0286 19.3202 72.2267 19.2356Z" fill="#150C0B"/>
<path d="M90.4754 19.722L91.2393 22.5769H86.6348L85.9557 19.8066H85.9133C85.786 20.5961 85.496 21.2446 85.0433 21.7522C84.6048 22.2597 84.1168 22.5981 83.5792 22.7673C83.0558 22.9506 82.5961 23.0422 82.2 23.0422C81.4785 23.0422 80.8349 22.8871 80.269 22.5769C79.7032 22.2527 79.2647 21.8368 78.9534 21.3292C78.6422 20.8076 78.4866 20.2084 78.4866 19.5317C78.4866 19.0946 78.5715 18.6505 78.7413 18.1993C78.911 17.7482 79.2717 17.3252 79.8234 16.9305C80.3751 16.5216 81.2593 16.1762 82.4758 15.8942C82.589 15.866 82.8578 15.8026 83.2821 15.7039C83.7207 15.6052 84.1309 15.5065 84.5129 15.4078C84.9089 15.295 85.2131 15.1752 85.4253 15.0483C85.6375 14.9214 85.7789 14.8086 85.8497 14.7099C85.9345 14.5972 85.977 14.4773 85.977 14.3504C85.977 13.8711 85.6233 13.6314 84.916 13.6314C84.5907 13.6314 84.1875 13.6878 83.7065 13.8006C83.2256 13.8993 82.7092 14.0967 82.1575 14.3927C81.62 14.6747 81.1814 14.9919 80.8419 15.3444L78.6352 12.3414C79.4981 11.5801 80.4812 10.9879 81.5846 10.565C82.7022 10.1279 83.8126 9.90939 84.916 9.90939C85.5526 9.90939 86.1962 9.99398 86.847 10.1632C87.4977 10.3183 88.0989 10.572 88.6506 10.9245C89.2023 11.2629 89.6408 11.714 89.9662 12.2779C90.3057 12.8419 90.4754 13.4975 90.4754 14.2447V19.722ZM85.9345 19.2356V17.0362C85.8638 17.1208 85.7436 17.2124 85.5738 17.3111C85.4182 17.3957 85.0221 17.5367 84.3855 17.7341C83.7631 17.9315 83.367 18.1007 83.1973 18.2416C83.0417 18.3685 82.9639 18.5095 82.9639 18.6646C82.9639 18.9043 83.0558 19.1157 83.2397 19.299C83.4236 19.4823 83.756 19.5739 84.237 19.5739C84.5058 19.5739 84.8028 19.5387 85.1282 19.4682C85.4677 19.3977 85.7365 19.3202 85.9345 19.2356Z" fill="#150C0B"/>
<path d="M97.3932 4.66473V22.5769H92.8311V4.66473H97.3932Z" fill="#150C0B"/>
<path d="M112.92 16.5075C112.92 17.3252 112.771 18.1288 112.474 18.9184C112.177 19.7079 111.739 20.4128 111.159 21.0331C110.579 21.6535 109.85 22.1469 108.973 22.5135C108.11 22.8801 107.134 23.0633 106.045 23.0633C104.956 23.0633 103.972 22.8801 103.095 22.5135C102.232 22.1469 101.511 21.6535 100.931 21.0331C100.351 20.4128 99.9124 19.7079 99.6154 18.9184C99.3325 18.1288 99.191 17.3252 99.191 16.5075C99.191 15.6898 99.3325 14.8862 99.6154 14.0967C99.9124 13.3071 100.351 12.6022 100.931 11.9819C101.511 11.3615 102.232 10.8681 103.095 10.5015C103.972 10.135 104.956 9.95169 106.045 9.95169C107.134 9.95169 108.11 10.135 108.973 10.5015C109.85 10.8681 110.579 11.3615 111.159 11.9819C111.739 12.6022 112.177 13.3071 112.474 14.0967C112.771 14.8862 112.92 15.6898 112.92 16.5075ZM108.464 16.5075C108.464 15.7603 108.244 15.1118 107.806 14.5619C107.382 13.998 106.795 13.716 106.045 13.716C105.309 13.716 104.722 13.998 104.284 14.5619C103.859 15.1118 103.647 15.7603 103.647 16.5075C103.647 17.2547 103.859 17.9033 104.284 18.4531C104.722 19.003 105.309 19.2779 106.045 19.2779C106.795 19.2779 107.382 19.003 107.806 18.4531C108.244 17.9033 108.464 17.2547 108.464 16.5075Z" fill="#150C0B"/>
<path d="M127.7 16.2537C127.7 17.1138 127.573 17.9526 127.318 18.7703C127.078 19.588 126.71 20.3212 126.215 20.9697C125.72 21.6041 125.097 22.1117 124.348 22.4923C123.612 22.8589 122.784 23.0422 121.865 23.0422C121.412 23.0422 120.96 22.9858 120.507 22.873C120.054 22.7602 119.658 22.5981 119.319 22.3866V27.8639H114.735V13.2719L113.971 10.3112H118.576L119.234 12.9335H119.276C119.361 12.3273 119.559 11.7845 119.87 11.3051C120.196 10.8258 120.62 10.4804 121.143 10.2689C121.667 10.0433 122.219 9.93054 122.799 9.93054C123.577 9.93054 124.277 10.0997 124.899 10.4381C125.522 10.7765 126.038 11.2417 126.448 11.8338C126.858 12.426 127.17 13.1027 127.382 13.864C127.594 14.6254 127.7 15.4219 127.7 16.2537ZM122.947 16.4652C122.947 15.5347 122.728 14.7804 122.289 14.2024C121.865 13.6244 121.299 13.3353 120.592 13.3353C120.139 13.3353 119.715 13.427 119.319 13.6103V19.3202C119.729 19.4894 120.153 19.5739 120.592 19.5739C120.945 19.5739 121.299 19.4823 121.653 19.299C122.021 19.1157 122.325 18.7703 122.565 18.2628C122.82 17.7411 122.947 17.1419 122.947 16.4652Z" fill="#150C0B"/>
<path d="M137.865 10.3112V13.2296H134.724V18.6434C134.724 19.2497 135.177 19.5528 136.082 19.5528C136.493 19.5528 136.938 19.5105 137.419 19.4259V22.5769C136.655 22.8871 135.708 23.0422 134.576 23.0422C133.614 23.0422 132.808 22.8801 132.157 22.5558C131.506 22.2315 131.004 21.7592 130.65 21.1389C130.311 20.5186 130.141 19.7361 130.141 18.7915V13.2296H128.444V10.3112H130.141V7.9215L134.724 5.40491V10.3112H137.865Z" fill="#150C0B"/>
<path d="M144.144 10.3112V22.5769H139.56V10.3112H144.144Z" fill="#150C0B"/>
<path d="M151.013 10.3112V23.444C151.013 24.0643 150.914 24.6635 150.716 25.2416C150.532 25.8337 150.221 26.3413 149.782 26.7642C149.344 27.2013 148.785 27.5396 148.106 27.7793C147.441 28.0331 146.663 28.16 145.772 28.16C145.121 28.16 144.371 28.0754 143.522 27.9062V24.4379C144.159 24.5507 144.661 24.6071 145.029 24.6071C145.963 24.6071 146.43 24.2476 146.43 23.5286V10.3112H151.013Z" fill="#150C0B"/>
<path d="M165.776 19.6162L166.539 22.5769H161.935L161.277 19.9546H161.235C161.15 20.5608 160.945 21.1036 160.619 21.583C160.308 22.0482 159.891 22.3866 159.367 22.5981C158.844 22.8096 158.292 22.9153 157.712 22.9153C157.132 22.9153 156.545 22.8025 155.951 22.5769C155.371 22.3514 154.848 21.9778 154.381 21.4561C153.928 20.9345 153.553 20.2718 153.256 19.4682C152.959 18.6505 152.811 17.7129 152.811 16.6555C152.811 15.7955 152.931 14.9637 153.171 14.1601C153.426 13.3424 153.801 12.6163 154.296 11.9819C154.791 11.3474 155.406 10.8469 156.142 10.4804C156.892 10.1138 157.726 9.93054 158.646 9.93054C159.099 9.93054 159.551 9.98693 160.004 10.0997C160.457 10.2125 160.853 10.3746 161.192 10.5861V4.70703H165.776V19.6162ZM161.192 19.3202V13.6103C160.796 13.427 160.372 13.3353 159.919 13.3353C159.212 13.3353 158.639 13.6244 158.2 14.2024C157.776 14.7804 157.564 15.5347 157.564 16.4652C157.564 17.1419 157.684 17.7411 157.924 18.2628C158.179 18.7703 158.483 19.1157 158.837 19.299C159.205 19.4823 159.565 19.5739 159.919 19.5739C160.372 19.5739 160.796 19.4894 161.192 19.3202Z" fill="#150C0B"/>
<path d="M144.186 7.51969C144.356 7.11083 144.441 6.74427 144.441 6.42C144.441 5.91245 144.292 5.44015 143.995 5.0031C143.698 4.56604 143.344 4.26292 142.934 4.09374C142.538 3.92456 142.177 3.83997 141.852 3.83997C141.527 3.83997 141.159 3.92456 140.749 4.09374C140.338 4.26292 139.985 4.56604 139.688 5.0031C139.391 5.44015 139.242 5.91245 139.242 6.42C139.242 7.13903 139.497 7.75231 140.006 8.25986C140.515 8.76741 141.131 9.02118 141.852 9.02118C142.361 9.02118 142.835 8.87315 143.274 8.57708C143.712 8.28101 144.016 7.92855 144.186 7.51969Z" fill="#150C0B"/>
<path d="M151.076 7.51969C151.246 7.11083 151.331 6.74427 151.331 6.42C151.331 5.91245 151.183 5.44015 150.886 5.0031C150.588 4.56604 150.235 4.26292 149.825 4.09374C149.428 3.92456 149.068 3.83997 148.742 3.83997C148.417 3.83997 148.049 3.92456 147.639 4.09374C147.229 4.26292 146.875 4.56604 146.578 5.0031C146.281 5.44015 146.132 5.91245 146.132 6.42C146.132 7.13903 146.387 7.75231 146.896 8.25986C147.406 8.76741 148.021 9.02118 148.742 9.02118C149.252 9.02118 149.726 8.87315 150.164 8.57708C150.603 8.28101 150.907 7.92855 151.076 7.51969Z" fill="#150C0B"/>
</g>
<defs>
<clipPath id="clip0">
<rect width="166.54" height="32" fill="white"/>
</clipPath>
</defs>
</svg>
