<svg width="24" height="24" viewBox="0 0 24 24" fill="none" xmlns="http://www.w3.org/2000/svg">
<path d="M19.633 7.9968C19.646 8.1718 19.646 8.3458 19.646 8.5198C19.646 13.8448 15.593 19.9808 8.186 19.9808C5.904 19.9808 3.784 19.3198 2 18.1718C2.324 18.2088 2.636 18.2218 2.973 18.2218C4.78599 18.2262 6.54765 17.6199 7.974 16.5008C7.13342 16.4856 6.31858 16.2083 5.64324 15.7075C4.9679 15.2068 4.46578 14.5077 4.207 13.7078C4.456 13.7448 4.706 13.7698 4.968 13.7698C5.329 13.7698 5.692 13.7198 6.029 13.6328C5.11676 13.4486 4.29647 12.9541 3.70762 12.2335C3.11876 11.5128 2.79769 10.6104 2.799 9.6798V9.6298C3.336 9.9288 3.959 10.1158 4.619 10.1408C4.06609 9.77338 3.61272 9.27482 3.29934 8.68959C2.98596 8.10436 2.82231 7.45065 2.823 6.7868C2.823 6.0388 3.022 5.3528 3.371 4.7548C4.38314 5.99982 5.6455 7.01836 7.07634 7.74446C8.50717 8.47055 10.0746 8.88801 11.677 8.9698C11.615 8.6698 11.577 8.3588 11.577 8.0468C11.5767 7.51776 11.6807 6.99386 11.8831 6.50504C12.0854 6.01622 12.3821 5.57207 12.7562 5.19799C13.1303 4.8239 13.5744 4.52721 14.0632 4.32488C14.5521 4.12254 15.076 4.01854 15.605 4.0188C16.765 4.0188 17.812 4.5048 18.548 5.2908C19.4498 5.11642 20.3145 4.78722 21.104 4.3178C20.8034 5.24862 20.1738 6.0379 19.333 6.5378C20.1328 6.44658 20.9144 6.23625 21.652 5.9138C21.1011 6.7169 20.4185 7.42114 19.633 7.9968Z" fill="#F7F9FC"/>
</svg>
